<?xml version="1.0" encoding="utf-8"?>
<!-- Generator: Adobe Illustrator 23.0.1, SVG Export Plug-In . SVG Version: 6.00 Build 0)  -->
<svg version="1.1" id="Layer_1" xmlns="http://www.w3.org/2000/svg" xmlns:xlink="http://www.w3.org/1999/xlink" x="0px" y="0px"
	 viewBox="0 0 902.4 205.9" style="enable-background:new 0 0 902.4 205.9;" xml:space="preserve">
<style type="text/css">
	.st0{fill:#FF8100;}
	.st1{fill:#FFFFFF;}
</style>
<g id="g7433">
	<path id="path7429" class="st0" d="M302,32.2c-3.4-12.6-13.3-22.5-25.9-25.9C253.1,0,161,0,161,0S68.9,0,45.9,6.1
		C33.6,9.4,23.4,19.6,20,32.2c-6.1,23-6.1,70.7-6.1,70.7s0,48,6.1,70.7c3.4,12.6,13.3,22.5,25.9,25.9c23.3,6.3,115.1,6.3,115.1,6.3
		s92.1,0,115.1-6.1c12.6-3.4,22.5-13.3,25.9-25.9c6.1-23,6.1-70.7,6.1-70.7S308.3,55.2,302,32.2L302,32.2z"/>
	<path id="polygon7431" class="st1" d="M131.7,58.9v88.2l76.6-44.1L131.7,58.9z"/>
</g>
<g id="g7451">
	<g id="g7449">
		<path id="path7437" class="st1" d="M840.1,136.4v6.5c0,8.2,0.2,14.5,0.7,18.7c0.5,4.1,1.5,7.3,3.1,9c1.5,1.9,3.9,2.9,7.3,2.9
			c4.4,0,7.3-1.7,9-5.1s2.4-9,2.7-17l25,1.5c0.2,1.2,0.2,2.7,0.2,4.6c0,11.9-3.1,20.8-9.7,26.7c-6.5,5.8-15.7,8.7-27.6,8.7
			c-14.3,0-24.2-4.6-30-13.6s-8.7-22.8-8.7-41.7v-22.5c0-19.4,2.9-33.4,9-42.4s16.2-13.3,30.5-13.3c9.9,0,17.7,1.9,23,5.6
			c5.3,3.6,9,9.4,11.1,17c2.2,7.8,3.1,18.4,3.1,32v22h-48.7L840.1,136.4L840.1,136.4z M843.8,82.1c-1.5,1.9-2.4,4.8-2.9,9
			c-0.5,4.1-0.7,10.4-0.7,18.9v9.2h21.3V110c0-8.2-0.2-14.5-0.7-18.9s-1.7-7.3-3.1-9c-1.5-1.7-3.9-2.7-6.8-2.7
			C847.4,79.2,845.2,80.2,843.8,82.1L843.8,82.1z"/>
		<path id="path7443" class="st1" d="M700.1,62.3v129.1h-22.8l-2.4-15.7h-0.7c-6.1,11.9-15.5,17.9-27.9,17.9
			c-8.5,0-14.8-2.9-18.9-8.5c-4.1-5.6-6.1-14.3-6.1-26.4V62.3h29.1V157c0,5.8,0.7,9.9,1.9,12.4s3.4,3.6,6.3,3.6
			c2.4,0,4.8-0.7,7.3-2.4c2.4-1.5,4.1-3.4,5.1-5.8V62.3H700.1z"/>
		<path id="path7445" class="st1" d="M630.1,38h-28.8v153.1H573V38h-28.8V14.5h86V38H630.1z"/>
		<path class="st1" d="M370.5,18.1l28.3,127.3L427,18.1h29.8v175.5h-22.8v-48l2.3-82.8l-29.8,130.8h-15.6L361.3,62.9l2.3,82.7v48
			h-22.7V18.1H370.5z"/>
		<path id="path7439" class="st1" d="M492.6,149.4l-27.3-89.1h23.9l9.6,40.3c2.4,9.9,4.2,18.4,5.4,25.5h0.6
			c0.8-5.1,2.6-13.4,5.4-25.3l10-40.5h23.9l-27.5,89.1V192h-23.7v-42.7H492.6z"/>
		<path id="path7447" class="st1" d="M796.3,82.9c-1.7-8.2-4.6-14.1-8.5-17.7c-3.9-3.6-9.4-5.6-16.2-5.6c-5.3,0-10.4,1.5-15,4.6
			c-4.6,2.9-8.2,7-10.7,11.9h-0.2V8h-28.1v183.2h24l2.9-12.1h0.7c2.2,4.4,5.6,7.8,10.2,10.4c4.6,2.4,9.4,3.9,15,3.9
			c9.9,0,17-4.6,21.6-13.6s7-23.3,7-42.4V117C798.7,102.2,798,90.9,796.3,82.9L796.3,82.9z M769.6,135.4c0,9.4-0.5,16.7-1.2,22
			s-2.2,9.2-3.9,11.4c-1.9,2.2-4.4,3.4-7.3,3.4c-2.4,0-4.6-0.5-6.5-1.7s-3.6-2.9-4.8-5.1V92.3c1-3.4,2.7-6.3,5.1-8.7
			c2.4-2.2,5.1-3.4,7.8-3.4c2.9,0,5.3,1.2,6.8,3.4c1.7,2.4,2.7,6.3,3.4,11.6c0.7,5.6,1,13.3,1,23.3v17h-0.4V135.4z"/>
	</g>
</g>
</svg>
